<svg xmlns="http://www.w3.org/2000/svg" viewBox="0 0 128 128" width="128" height="128">
  <defs>
    <filter id="shadow" x="-20%" y="-20%" width="140%" height="140%">
      <feDropShadow dx="1" dy="2" stdDeviation="2" flood-color="#0d0900" flood-opacity="0.5"/>
    </filter>
  </defs>
<g filter="url(#shadow)">
<rect x="16" y="12" width="96" height="104" fill="#5a3614" stroke="#2a1f0e" stroke-width="2" rx="3"/>
<rect x="20" y="12" width="88" height="8" fill="#8b5c2a" stroke="#2a1f0e" stroke-width="2" rx="2"/>
<rect x="20" y="44" width="88" height="8" fill="#8b5c2a" stroke="#2a1f0e" stroke-width="2" rx="2"/>
<rect x="20" y="76" width="88" height="8" fill="#8b5c2a" stroke="#2a1f0e" stroke-width="2" rx="2"/>
<rect x="20" y="108" width="88" height="8" fill="#8b5c2a" stroke="#2a1f0e" stroke-width="2" rx="2"/>
<rect x="22" y="18" width="12" height="24" fill="#7b3f3f" stroke="#2a1f0e" stroke-width="2"/>
<rect x="36" y="20" width="10" height="22" fill="#cfa14a" stroke="#2a1f0e" stroke-width="2"/>
<rect x="48" y="16" width="14" height="26" fill="#3f5a7b" stroke="#2a1f0e" stroke-width="2"/>
<rect x="64" y="18" width="10" height="24" fill="#3a7a3a" stroke="#2a1f0e" stroke-width="2"/>
<rect x="76" y="20" width="12" height="22" fill="#9b6644" stroke="#2a1f0e" stroke-width="2"/>
<rect x="90" y="17" width="14" height="25" fill="#6a3a7a" stroke="#2a1f0e" stroke-width="2"/>
<rect x="22" y="50" width="10" height="24" fill="#3a7a3a" stroke="#2a1f0e" stroke-width="2"/>
<rect x="34" y="52" width="14" height="22" fill="#c28a4e" stroke="#2a1f0e" stroke-width="2"/>
<rect x="50" y="50" width="10" height="24" fill="#c0392b" stroke="#2a1f0e" stroke-width="2"/>
<rect x="62" y="52" width="12" height="22" fill="#3f5a7b" stroke="#2a1f0e" stroke-width="2"/>
<rect x="76" y="50" width="10" height="24" fill="#cfa14a" stroke="#2a1f0e" stroke-width="2"/>
<rect x="88" y="50" width="18" height="24" fill="#9b6644" stroke="#2a1f0e" stroke-width="2"/>
</g>
</svg>
