<svg xmlns="http://www.w3.org/2000/svg" viewBox="0 0 128 128" width="128" height="128">
  <defs>
    <linearGradient id="woodFrame" x1="0" y1="0" x2="1" y2="1">
      <stop offset="0%" stop-color="#4a2712"/>
      <stop offset="100%" stop-color="#2d170b"/>
    </linearGradient>
    <linearGradient id="doorWood" x1="0" y1="0" x2="0" y2="1">
      <stop offset="0%" stop-color="#ad6b34"/>
      <stop offset="48%" stop-color="#8b4d22"/>
      <stop offset="100%" stop-color="#6f3a1a"/>
    </linearGradient>
    <linearGradient id="metal" x1="0" y1="0" x2="1" y2="1">
      <stop offset="0%" stop-color="#f8dfa1"/>
      <stop offset="100%" stop-color="#b9872e"/>
    </linearGradient>
    <filter id="shadow" x="-20%" y="-20%" width="140%" height="140%">
      <feDropShadow dx="0" dy="4" stdDeviation="5" flood-color="#050200" flood-opacity="0.42"/>
    </filter>
  </defs>
  <g filter="url(#shadow)">
    <rect x="16" y="10" width="96" height="108" rx="10" fill="url(#woodFrame)" stroke="#120904" stroke-width="3"/>
    <rect x="24" y="18" width="80" height="92" rx="8" fill="url(#doorWood)" stroke="#2a1408" stroke-width="2.5"/>
    <path d="M32 26h64v76H32z" fill="none" stroke="rgba(34,15,6,0.6)" stroke-width="2"/>
    <path d="M40 24v80M52 24v80M64 24v80M76 24v80M88 24v80" stroke="rgba(255,220,150,0.12)" stroke-width="1.2"/>
    <rect x="31" y="30" width="66" height="12" rx="5" fill="#5f3015" opacity="0.7"/>
    <rect x="31" y="86" width="66" height="12" rx="5" fill="#5f3015" opacity="0.7"/>
    <rect x="24" y="22" width="12" height="24" rx="4" fill="url(#metal)" stroke="#6d4a10" stroke-width="1.6"/>
    <rect x="24" y="82" width="12" height="24" rx="4" fill="url(#metal)" stroke="#6d4a10" stroke-width="1.6"/>
    <circle cx="83" cy="64" r="5.5" fill="url(#metal)" stroke="#6d4a10" stroke-width="1.8"/>
    <circle cx="83" cy="64" r="1.7" fill="#7c5216"/>
    <path d="M64 8l12 10H52z" fill="#e2c585" stroke="#5e3b0a" stroke-width="2"/>
    <path d="M24 18h80" stroke="rgba(255,242,210,0.2)" stroke-width="2"/>
  </g>
</svg>
