<svg xmlns="http://www.w3.org/2000/svg" viewBox="0 0 128 128" width="128" height="128">
  <defs>
    <filter id="shadow" x="-20%" y="-20%" width="140%" height="140%">
      <feDropShadow dx="1" dy="2" stdDeviation="2" flood-color="#0d0900" flood-opacity="0.5"/>
    </filter>
  </defs>
<g filter="url(#shadow)">
<rect x="10" y="30" width="108" height="88" fill="#c28a4e" stroke="#2a1f0e" stroke-width="2" rx="3"/>
<rect x="8" y="24" width="112" height="22" fill="#c0392b" stroke="#2a1f0e" stroke-width="2" rx="3"/>
<path d="M8 44 Q20 54 32 44 Q44 54 56 44 Q68 54 80 44 Q92 54 104 44 Q116 54 120 44 L120 48 L8 48 Z" fill="#c0392b" stroke="#2a1f0e" stroke-width="1"/>
<rect x="14" y="52" width="36" height="32" fill="#5a9090" stroke="#2a1f0e" stroke-width="2" rx="3"/>
<rect x="78" y="52" width="36" height="32" fill="#5a9090" stroke="#2a1f0e" stroke-width="2" rx="3"/>
<line x1="20" y1="58" x2="44" y2="58" stroke="#8ac8c8" stroke-width="2"/>
<line x1="84" y1="58" x2="108" y2="58" stroke="#8ac8c8" stroke-width="2"/>
<rect x="50" y="78" width="28" height="40" fill="#8b5c2a" stroke="#2a1f0e" stroke-width="2" rx="4"/>
<circle cx="58" cy="98" r="4" fill="#cfa14a" stroke="#2a1f0e" stroke-width="2"/>
<line x1="54" y1="86" x2="74" y2="86" stroke="#5a3614" stroke-width="1"/>
</g>
</svg>
