<svg xmlns="http://www.w3.org/2000/svg" viewBox="0 0 128 128" width="128" height="128">
  <defs>
    <filter id="shadow" x="-20%" y="-20%" width="140%" height="140%">
      <feDropShadow dx="1" dy="2" stdDeviation="2" flood-color="#0d0900" flood-opacity="0.5"/>
    </filter>
  </defs>
<g filter="url(#shadow)">
<polygon points="22,76 32,76 27,30" fill="#4a4a55" stroke="#2a1f0e" stroke-width="2"/>
<polygon points="24,76 29,76 27,40" fill="#8888a0" stroke="none" stroke-width="2"/>
<polygon points="38,76 48,76 43,30" fill="#4a4a55" stroke="#2a1f0e" stroke-width="2"/>
<polygon points="40,76 45,76 43,40" fill="#8888a0" stroke="none" stroke-width="2"/>
<polygon points="54,76 64,76 59,30" fill="#4a4a55" stroke="#2a1f0e" stroke-width="2"/>
<polygon points="56,76 61,76 59,40" fill="#8888a0" stroke="none" stroke-width="2"/>
<polygon points="70,76 80,76 75,30" fill="#4a4a55" stroke="#2a1f0e" stroke-width="2"/>
<polygon points="72,76 77,76 75,40" fill="#8888a0" stroke="none" stroke-width="2"/>
<polygon points="86,76 96,76 91,30" fill="#4a4a55" stroke="#2a1f0e" stroke-width="2"/>
<polygon points="88,76 93,76 91,40" fill="#8888a0" stroke="none" stroke-width="2"/>
<polygon points="102,76 112,76 107,30" fill="#4a4a55" stroke="#2a1f0e" stroke-width="2"/>
<polygon points="104,76 109,76 107,40" fill="#8888a0" stroke="none" stroke-width="2"/>
<rect x="14" y="76" width="100" height="22" fill="#4a4a55" stroke="#2a1f0e" stroke-width="2" rx="3"/>
<rect x="20" y="80" width="88" height="14" fill="#8888a0" stroke="#2a1f0e" stroke-width="2" rx="2"/>
</g>
</svg>
